<svg xmlns="http://www.w3.org/2000/svg" xmlns:xlink="http://www.w3.org/1999/xlink" viewBox="0 0 897.33 945.5"><defs><style>.bba75fee-19ce-4eac-aa02-7e4a0a9d2f40,.fbae58a5-242b-4c04-b03c-50c83c3a0678{stroke-miterlimit:10;stroke-width:12px;}.fbae58a5-242b-4c04-b03c-50c83c3a0678{fill:url(#ba3c3cd4-d662-443b-b701-fb40bf37b4b6);stroke:url(#ef46f513-c95a-4917-9399-dfed12d84ca7);}.bba75fee-19ce-4eac-aa02-7e4a0a9d2f40{fill:#fff;stroke:#fff;}.beacb05c-c049-437e-961b-338d9d178014{fill:none;}.ae0f86c2-421f-4b37-9ce6-645566461479{fill:#0071bc;}.a1b6a34e-8070-4e2d-a2dd-2f4bdce5d66a{fill:#1e2120;}.f635c599-3b4b-46a1-a258-27ba6f8ac13f{fill:#4d5153;}.b441ed5f-a848-4949-907c-cf56a404bde8{fill:#fdb515;}.b2bd0044-e87b-4abe-8130-caabe4fff4c0{fill:#e8f4fd;}.e9722cb9-b213-441c-b0df-0bc7783b1be5{fill:#5aa9bf;}.bdac3781-1419-4edf-ba2f-bb4f86b6f870{fill:#68c6e2;}.e666aa2b-4052-42ff-9448-7c12644a6cd2{fill:#1a1a1a;}.f1b97e76-609f-4bb2-9e1d-dcf2b9e03776{fill:#ccc;}.a7ac86bb-e779-4d46-8b9d-87d9200f19ec{font-size:90.16px;}.a7ac86bb-e779-4d46-8b9d-87d9200f19ec,.bc2f24b9-ab33-41cc-a103-cf587c9eb6d2{font-family:DDCHardware-Regular, DDC Hardware;}.bc2f24b9-ab33-41cc-a103-cf587c9eb6d2{font-size:48px;}.b6ae3e16-830a-4efb-8298-49dee89acbc4{letter-spacing:-0.07em;}</style><linearGradient id="ba3c3cd4-d662-443b-b701-fb40bf37b4b6" x1="70.43" y1="519.47" x2="955.75" y2="519.47" gradientUnits="userSpaceOnUse"><stop offset="0" stop-color="#fff1db"/><stop offset="0.5" stop-color="#fddece"/><stop offset="0.58" stop-color="#f5dacf"/><stop offset="0.7" stop-color="#decfd1"/><stop offset="0.85" stop-color="#b9bed5"/><stop offset="1" stop-color="#8eaad9"/></linearGradient><linearGradient id="ef46f513-c95a-4917-9399-dfed12d84ca7" x1="64.43" y1="519.57" x2="961.76" y2="519.57" xlink:href="#ba3c3cd4-d662-443b-b701-fb40bf37b4b6"/></defs><title>rllogo</title><g id="be0764e2-e8f9-4fcb-9621-c1ab8b8eb530" data-name="Layer 3"><path class="fbae58a5-242b-4c04-b03c-50c83c3a0678" d="M77.39,874.09l-7-1.79V52.82H955.75c0,1.41,0,2.21,0,2.21V872.71L511.93,986.12Z" transform="translate(-64.43 -46.82)"/><path class="bba75fee-19ce-4eac-aa02-7e4a0a9d2f40" d="M120.07,840.34l-6.28-1.62V96H912.38V839.09L512,941.88Z" transform="translate(-64.43 -46.82)"/></g><g id="b5de29c0-8e4d-45c4-9129-a67f4692bbe6" data-name="Layer 1"><path class="beacb05c-c049-437e-961b-338d9d178014" d="M704.38,294.87h0c-.1-.08-.2-.22-.32-.24a16.2,16.2,0,0,0-5.12-.55,25.84,25.84,0,0,0-6.55,1.61,102.68,102.68,0,0,0-13.88,6.63,96.68,96.68,0,0,0-20.42,14.77,15.44,15.44,0,0,1-2.9,2.39c-.2.07-.41.13-.61.22-11,4.9-21.85,10-32.53,15.53a9,9,0,0,1-3,.91c-11.55,1.53-23.09,3.1-34.64,4.62-7.84,1-15.65,2.24-23.56,2.74a41.52,41.52,0,0,0-13.17,3.34c-4,1.64-7.94,3.44-11.82,5.35a393.06,393.06,0,0,0-35.47,19.95c-7.41,4.63-14.65,9.52-21.85,14.48a21.12,21.12,0,0,0-11.75,2.63,14.3,14.3,0,0,0-3,2c-.92.8-1,1.34-.38,2.5a8.72,8.72,0,0,0,1.28,1.85l2.68,2.85c-.43.52-.86,1-1.3,1.55-3.37,3-6.72,6-10,9.15-.25.24-.52.46-.78.69q-2.74,2.6-5.5,5.18a1.59,1.59,0,0,0-.49,1.47c.13,1.07.24,2.13.38,3.2.35,2.72.72,5.45,1.08,8.18-.75-.61-1.49-1.24-2.25-1.83a16.6,16.6,0,0,0-4.3-2.67c-2.2-.82-3.49-.45-4.73,1.46a12.35,12.35,0,0,1-1.44,1.69c-.32.36-.66.34-1,0-.16-.17-.32-.34-.49-.5-.84-.83-.84-.83-1.69-.15-1.29,1-2,.92-3.09-.46a30.34,30.34,0,0,1,3.45-2.95c.77-.62.82-.85.25-1.69s-1.3-1.85-1.89-2.8c-2.28-3.68-4.76-7.23-6.41-11.28-.82-2-1.8-3.94-2.75-5.89-.55-1.13-.73-1.18-1.45-.24-1.07,1.39-2.26,2.66-3.37,4-1.9,2.33-3.72,4.75-5.67,7-1.16,1.36-2.26,2.79-3.4,4.16-.92,1.11-1.87,2.2-2.77,3.32-2,2.49-4,5-6,7.45-1,1.25-2,2.53-3.06,3.77-2.18,2.56-4.22,5.25-6.37,7.83a8,8,0,0,0-2,4.74,1.73,1.73,0,0,0,.51,1.5c.92.93,1.82,1.89,2.72,2.84l4.75,5c.32.34.63.69,1.15.52a8.22,8.22,0,0,0,3.23-1.59c1.38-1.27,2.71-2.58,4.06-3.87a33.41,33.41,0,0,1,3.36,3.37c1.43,1.47,1.48,2.88.2,4.35-.83.94-.83.94.06,2,.73.84.73.9,0,1.47a71.9,71.9,0,0,0-8.15,7.26,55.94,55.94,0,0,0-4.77,5.73,50.25,50.25,0,0,0-4.88,7.69,10.39,10.39,0,0,1-1,1.85q-3.44,4.13-7,8.17c-1.05,1.22-2.19,2.36-3.14,3.69a2.32,2.32,0,0,0-.29,2.43,10.73,10.73,0,0,1,.88,2.07,5.52,5.52,0,0,0-.42,4.51,13,13,0,0,0,2.56,4.81,19.48,19.48,0,0,1-2,9,41,41,0,0,1-2.89,4.42c-.62.9-.63,1,.18,1.85.35.39.71.75,1.06,1.13s.33.66,0,.93a33.85,33.85,0,0,0-4.05,4.07c-2.64,2.85-5.66,5.28-8.2,8.24a7.57,7.57,0,0,1-2.49,1c-1.52.37-3,.76-4.55,1.09a41.64,41.64,0,0,1-8.75,1.36,133.87,133.87,0,0,1-17.52-1.07,6.36,6.36,0,0,1-2.73-.53,4.15,4.15,0,0,1-.51-1.3q-1.51-4.53-3-9.07a9.55,9.55,0,0,1-.67-2.27,29.14,29.14,0,0,1,3.1-2.57,8,8,0,0,0,3.33-5.36c.36-2.78.58-5.57.71-8.38a3.82,3.82,0,0,0-.25-1.37.92.92,0,0,0-1.24-.73c-.58.18-1.16.38-1.72.61l-5.14,2.16c-.31.14-.62.38-1,.3a3,3,0,0,0-1.87.41A263.91,263.91,0,0,0,289.2,528.2c-9.07,5.53-18,11.31-27,17-5.36,3.41-10.67,6.91-15.78,10.7a18.52,18.52,0,0,0-3.06,2.62,1.54,1.54,0,0,0-.11,2.22,3.38,3.38,0,0,0,2,1.37c9.29,2.87,18.6,5.67,27.86,8.67a6.4,6.4,0,0,0,7.15-2.42c.53-.75,1.13-1.46,1.59-2.26.76-1.33,1.63-2,3.24-1.1a4.29,4.29,0,0,0,2.36.23,2.43,2.43,0,0,0,1.63-.72,14.7,14.7,0,0,0,1.73-2c1.31-1.76,2.63-3.52,4-5.24l4.28-5.5a63.85,63.85,0,0,1,4.44-5c.78-.8.82-.77,1.77-.07a16.13,16.13,0,0,0,5,2.48,94.43,94.43,0,0,0,13,2.74c3.38.47,6.78.66,10.16,1.35,5,1,10.06,2,15.09,3a1.84,1.84,0,0,1,1.1.49c-.4.16-.8.31-1.2.48a11.46,11.46,0,0,0-6.07,5.45,16.06,16.06,0,0,0-1.6,7.64,7.07,7.07,0,0,0,1.17,3.84,16.17,16.17,0,0,0,3.64,4.21,7.28,7.28,0,0,1-.91.93c-2.16,1.57-4.18,3.33-6.21,5.07a15.72,15.72,0,0,0-2.82,3.41,2.42,2.42,0,0,0-.34,2c-1.92,2-3.85,4-5.76,6-.68.72-.66.76-.09,1.64a27.67,27.67,0,0,0,2.54,3.36,135.55,135.55,0,0,0,11.83,11.66c.75.67.94.69,1.74.15a13.05,13.05,0,0,0,3.86-3.62,9.25,9.25,0,0,0,.82,1c.92.7,1.24.7,2-.06.41-.39.83-.76,1.25-1.14l.7.68c5.43,5.55,10.74,11.23,16.2,16.75,9,9.11,17.67,18.61,26.73,27.66,3.11,3.11,6.1,6.36,9.15,9.52a7.84,7.84,0,0,1,1.38,1.95,64,64,0,0,0,8.07,12.06,75.82,75.82,0,0,0,10.13,10.06,66.64,66.64,0,0,0,17.51,10.26A60.34,60.34,0,0,0,469.65,702a56.71,56.71,0,0,0,44.14-26.08,63.73,63.73,0,0,0,9.87-36.26,69.62,69.62,0,0,0-5.54-25.82,67.74,67.74,0,0,0-10.44-17.36.58.58,0,0,1,0-.92c2.67-3.48,4.93-7.28,7.34-11a50.61,50.61,0,0,1,5.76-7.85c3.7-3.82,7.31-7.73,11-11.57,2.36-2.45,4.61-5,7.17-7.25a2.5,2.5,0,0,0,.95-1.23c.34,0,.69,0,1,0a122.36,122.36,0,0,0,16.1.67,46.28,46.28,0,0,0,10.11-1.29,11.16,11.16,0,0,0,4.38-2.15c1.54-1.28,3-2.64,4.42-4.05,3.4-3.38,6.57-7,9.68-10.66,2.47-2.9,4.9-5.83,7.09-9a3,3,0,0,0,.72-2.24,12,12,0,0,0,1.21-3.12c4.72-13.83,9.63-27.59,14.56-41.33.63-.06.92-.62,1.3-1C623,469.24,635.62,456.09,648,442.64c4.73-5.15,9.57-10.18,14.36-15.26q5.16-5.47,10.34-10.95c.81-.86.85-.84,1.66.06.34.39.69.77,1,1.18a56.3,56.3,0,0,0,37.38,21.13,48.16,48.16,0,0,0,24.11-3.41,46.88,46.88,0,0,0,17-12.16,47.84,47.84,0,0,0,6.12-8.39c6.27-11.11,8.41-23.33,6.28-36.62a59.22,59.22,0,0,0-11.42-26.73c-.56-.73-1.09-1.48-1.62-2.21.31-.44.72-.45,1.08-.57,3.52-1.11,7-2.22,10.49-3.48a75.45,75.45,0,0,0,13.73-6.07c2.81-1.71,5.64-3.35,7.89-5.88a6.23,6.23,0,0,0,1.63-4.69,19.62,19.62,0,0,0-1.39-6.15c-.41-1.08-.4-1.1.67-1.33a13.36,13.36,0,0,0,1.86-.58,19.09,19.09,0,0,0,4.84-3.22,3.61,3.61,0,0,0,.76-4.28,8.5,8.5,0,0,0-.79-1.49,46,46,0,0,0-6.1-7.16,1.81,1.81,0,0,0-1.2-.57,3.23,3.23,0,0,0-2.44.7,18,18,0,0,0-3.88,4c-.56.84-.76.79-1.26-.14-1.13-2.07-2.25-4.15-3.39-6.2a.84.84,0,0,1,0-1c1.35-2.07,1.34-3.09-.12-5.13q-3.12-4.35-6.53-8.48c-1-1.23-2.12-2.39-3.08-3.66a47.51,47.51,0,0,0-3.86-4.27,3.82,3.82,0,0,0-4.05-1.14,9.34,9.34,0,0,0-5.13,3.59,5.29,5.29,0,0,1-2.35,1.73c-5.22,2.29-10.43,4.61-15.77,6.65-.32.12-.7.18-.7.66-.84.2-1.72.13-2.56.38-5.71,1.67-11.43,3.33-17.08,5.18-.37.11-.78.13-1,.51v0a.3.3,0,0,0-.39,0,32.82,32.82,0,0,0-8.25-2.34A.31.31,0,0,0,704.38,294.87Z" transform="translate(-64.43 -46.82)"/><path class="ae0f86c2-421f-4b37-9ce6-645566461479" d="M478.58,386.62c7.2-5,14.44-9.85,21.85-14.48a393.06,393.06,0,0,1,35.47-19.95c3.88-1.91,7.81-3.71,11.82-5.35a41.52,41.52,0,0,1,13.17-3.34c7.91-.5,15.72-1.71,23.56-2.74,11.55-1.52,23.09-3.09,34.64-4.62a9,9,0,0,0,3-.91c10.68-5.51,21.55-10.63,32.53-15.53.2-.09.41-.15.61-.22a1.18,1.18,0,0,1-.78,1,4.32,4.32,0,0,0-1,.83c-1.51,1.49-3,3-4.53,4.47-3.32,3.24-6.42,6.73-9.61,10.12-.69.25-1.39.48-2.06.78a127.07,127.07,0,0,0-15,8,13.93,13.93,0,0,0-5.09,5.51,60.37,60.37,0,0,0-5.25,14.54,16.91,16.91,0,0,1-1.26,3.69,34.67,34.67,0,0,1-6.4,8.67,96.26,96.26,0,0,1-14.7,12.21,216.29,216.29,0,0,1-22.82,13.61c-10.22,5.35-20.11,11.29-29.82,17.55-7.92,5.11-15.7,10.44-23.39,15.9q-8.52,6-16.88,12.35c-4.24,3.21-8.5,6.41-12.73,9.65s-8.29,6.42-12.45,9.61c-3.47,2.67-6.88,5.42-10.47,7.92-3,2.14-6,4.38-8.89,6.77-2.5,2.08-5,4.13-7.52,6.22-3.06,2.57-6.1,5.15-9.15,7.74q-3.51,3-7,6-4.92,4.25-9.85,8.52c-2.53,2.19-5,4.4-7.56,6.6-2.74,2.41-5.5,4.8-8.24,7.21s-5.25,4.69-7.92,7c-1.72,1.47-1.63,1.2,0,2.92.75.78.81.77,1.52.11q4.82-4.49,9.83-8.76c4.38-3.76,8.74-7.55,13.15-11.27q7-5.9,14-11.67c4.76-3.91,9.21-8.22,14.08-12,3.87-3,7.69-6.07,11.54-9.09,3.27-2.58,6.56-5.11,9.83-7.7s6.65-5.42,10.05-8c5.81-4.46,11.77-8.69,17.71-13,6.22-4.47,12.47-8.89,18.72-13.33,4.87-3.46,9.71-7,14.63-10.33,6.67-4.59,13.43-9,20.21-13.43,9.93-6.46,19.94-12.79,30.12-18.84,4.84-2.86,9.85-5.4,14.69-8.25A53.06,53.06,0,0,0,611.39,375a21.18,21.18,0,0,0,4-8.67,59,59,0,0,1,3.2-10.91c1.54-3.82,3.39-7.38,6.7-9.8a20.85,20.85,0,0,1,10.39-4.1,7.42,7.42,0,0,0-.61.86c-1.66,2.93-3.21,5.93-4.61,9-1.81,4-3.41,8.07-4.93,12.2-1.91,5.19-3.58,10.47-5.19,15.78q-2.19,7.26-4,14.68c-.93,3.93-1.9,7.84-2.82,11.77a2.39,2.39,0,0,0-.07,1.75l0,0a.84.84,0,0,0-.2.69c-.44,1.47-.74,3-1,4.49-.58,3-1.19,6-1.78,9a3.92,3.92,0,0,0,.54,3.33c.41.55.84,1.26,1.61,1.1s.7-.94.85-1.54c.05-.22.06-.45.11-.67.35-1.65.61-3.33,1.09-4.93a101.13,101.13,0,0,1,9.27-21.64,18.51,18.51,0,0,1,5.22-6.16,27.47,27.47,0,0,0,7.34-8.09,8.34,8.34,0,0,0,1.15-3.28c.24-1.63.46-3.27.85-4.85a87,87,0,0,1,4.61-13.38,101.5,101.5,0,0,1,7.88-14.47,58.61,58.61,0,0,1,5.69-8.07,98.26,98.26,0,0,1,10.22-9.88,38.66,38.66,0,0,1,4.31-3.33c.16-.05.33-.08.49-.14l41-16.75c2.64-1.08,5.31-2.06,7.88-3.29a4.8,4.8,0,0,0,1.35-.41c.54-.18.63-.52.36-1.05a7.71,7.71,0,0,0-1.07-1.64,18.88,18.88,0,0,0-5.95-4.39,6.1,6.1,0,0,1-1.78-1c.24-.38.65-.4,1-.51,5.65-1.85,11.37-3.51,17.08-5.18.84-.25,1.72-.18,2.56-.38a33.11,33.11,0,0,0,11-2.1.92.92,0,0,1,1.34.44c1.05,1.79,2.17,3.52,3.2,5.32.8,1.42.66,1.6-.9,1.53-.27,0-.53,0-.8,0a9.79,9.79,0,0,0-4.87,1.2.68.68,0,0,0-.3,1.1c.09.16.17.34.25.51q6.33,13.56,12.67,27.14c1.13,2.43,2.37,4.81,3.33,7.32,0,1.22-.71,1.7-1.76,1.95a93.62,93.62,0,0,0-13.84,4.31c-1.63-1.13-3.24-2.3-4.92-3.34-20.22-12.44-45.33-10.23-61.35,5.78a50.51,50.51,0,0,0-13,22.07,56.18,56.18,0,0,0-1.82,21.85,2.08,2.08,0,0,1-.53,1.83q-2.36,2.55-4.59,5.22c-3,3.55-6,7.09-8.89,10.72-3.42,4.27-6.75,8.64-9.89,13.17a95.66,95.66,0,0,0-7.21,11.56c-3.28,6.57-6.09,13.4-8.84,20.25-4.6,11.42-8.88,23-13.12,34.59-4.93,13.74-9.84,27.5-14.56,41.33a12,12,0,0,1-1.21,3.12,6.6,6.6,0,0,1-.6-.58,3.41,3.41,0,0,0-3.62-1.26,8,8,0,0,0-2.41,1,32.37,32.37,0,0,0-8.12,7.06c-2.39,2.79-4.69,5.66-7.18,8.36a22.11,22.11,0,0,1-12,6.59,59.68,59.68,0,0,1-15.18.84,185,185,0,0,1-19-2c-9.72-1.43-19.39-3.39-29.09-5a106.68,106.68,0,0,0-15.05-1.78,21,21,0,0,0-5.08.46c-2.35.51-3.4,2.36-4.19,4.48a1.26,1.26,0,0,0,.05,1l-4.87-.21-7.64-.33a9.43,9.43,0,0,1,.29-.9c1-2.37,2.19-4.67,3.35-7a51.52,51.52,0,0,1,6-9.29,20.4,20.4,0,0,1,8.19-5.79,33.37,33.37,0,0,1,5.42-1.78c1-.26,1.22-.8.74-1.84a2.59,2.59,0,0,0-.34-.61,9.21,9.21,0,0,0-6.19-3.7,9.39,9.39,0,0,0-4.69.91,8.08,8.08,0,0,0-2.68.42c-5.56,1-11.05,2.24-16.48,3.69a4.38,4.38,0,0,1-2.53.38,9,9,0,0,1,.89-.74l16.32-10.83c3.32-2.19,6.56-4.53,10-6.49,9.2-5.23,18.49-10.31,27.76-15.43q12.07-6.68,24.18-13.33,14.13-7.79,28.26-15.59a39.81,39.81,0,0,0,4.93-2.87,21.3,21.3,0,0,0,3.66,1.38,91.58,91.58,0,0,0,9,2.06c8,1.41,15.95,2.78,23.92,4.18a12.43,12.43,0,0,1,2.86.69c-.46,1.76-.89,3.52-1.39,5.26q-2.24,7.83-4.51,15.64c-1.47,5-3,10.06-4.45,15.08l-2,6.58c1-1.88,1.82-3.85,2.63-5.83,4.52-11,8.95-22.09,12.67-33.49A56.63,56.63,0,0,0,608,457a6.38,6.38,0,0,0-3.43-6.19,4.59,4.59,0,0,0-3.18-.77c-10,.1-20,0-29.93-.06a4.32,4.32,0,0,0-1.89.38c-2.1,1-4.22,2-6.33,3a2,2,0,0,0-1,.74,2.05,2.05,0,0,0-1.23.37c-8.57,4.13-17.11,8.31-25.58,12.65q-14.77,7.56-29.32,15.56c-14.08,7.78-28,15.9-41.39,24.78-6.89,4.56-13.69,9.25-20.52,13.91a50.22,50.22,0,0,0-4.86,3.45c-.47.36-1.08.29-1.6.49-3.32,1.26-6.66,2.45-10,3.74-6.44,2.54-12.65,5.58-18.89,8.55a181.09,181.09,0,0,0-19.05,10.76c-4.13,2.61-8.19,5.3-12.28,8-1.51,1-2.93,2.13-4.52,3a44.42,44.42,0,0,1-6.27-6.79c-.59-.75-.54-1.13.06-1.8.15-.16.31-.31.47-.46,3-2.69,6-5.38,9-8.08,1.67-1.51,3.34-3,5-4.58a2.94,2.94,0,0,0,.71-3.71c-.19-1.44-.19-1.43.86-2.39q1.83-1.68,3.63-3.37l8.66-8.1c3-2.8,5.94-5.61,8.92-8.4,2.79-2.62,5.59-5.21,8.38-7.83,3.07-2.89,6.12-5.8,9.19-8.69s6-5.65,9-8.47l5.81-5.42.77-.77.78-.73a.88.88,0,0,0,.57-.27c1.85-1.84,3.83-3.52,5.75-5.28s4-3.59,5.93-5.47,4.1-3.62,5.9-5.71a9.91,9.91,0,0,1,1.45-1.3A5.82,5.82,0,0,0,460,458c.24-1.44.6-2.85.92-4.27,1.17-5.18,2-10.45,2.78-15.76.83-6,1.45-12.09,2-18.18.33-4.07.61-8.15.79-12.24.07-1.57-.06-3.16.06-4.71a7.07,7.07,0,0,0-.37-2.88c.44-.51.87-1,1.3-1.55a2,2,0,0,0,1-.78l9.44-10C478.15,387.38,478.52,387.12,478.58,386.62Zm49.36,32.9c1.1-.71,2.37-1,3.49-1.68,9.13-5.36,18.29-10.65,27.39-16C570.4,394.91,582,388,593.23,380.56a28.64,28.64,0,0,0,8.46-8,73.88,73.88,0,0,0,8.59-18.95,2,2,0,0,0-1.08-2.66,7.72,7.72,0,0,0-2.31-.75,22.78,22.78,0,0,0-5-.2c-5.75.24-11.44.81-17.13,1.47-9.93,1.14-19.83,2.45-29.58,4.5a35,35,0,0,0-9.26,3.31c-1.6.85-3.21,1.69-4.78,2.59-10.78,6.15-21.06,13.09-31.35,20-7.64,5.14-15.12,10.52-22.81,15.59a12.59,12.59,0,0,0-3,2.69,6.31,6.31,0,0,0-1.57,4.61,19.17,19.17,0,0,1-.08,4c-.23,2.14-.44,4.29-.67,6.44q-1,9.39-1.92,18.77c-.05.46-.36,1,.17,1.41a1.72,1.72,0,0,0-.37.85c-.29,2.92-.6,5.84-.88,8.77-.08.86,0,1,.82,1.09a7.11,7.11,0,0,0,3.45-.56,32.61,32.61,0,0,0,4.93-2.59q12.54-7.2,25.06-14.42c4.57-2.63,9.16-5.23,13.72-7.88C527.11,420.37,527.83,420.3,527.94,419.52Z" transform="translate(-64.43 -46.82)"/><path class="a1b6a34e-8070-4e2d-a2dd-2f4bdce5d66a" d="M459.46,546.53l7.64.33,4.87.21c1,.13,2,.28,3,.38a256.51,256.51,0,0,1,33.55,5.18,173.74,173.74,0,0,0,18,3.08c4.45.53,8.89.76,13.34,1a2.5,2.5,0,0,1-.95,1.23c-2.56,2.23-4.81,4.8-7.17,7.25-3.69,3.84-7.3,7.75-11,11.57a50.61,50.61,0,0,0-5.76,7.85c-2.41,3.69-4.67,7.49-7.34,11a.58.58,0,0,0,0,.92,67.74,67.74,0,0,1,10.44,17.36,69.62,69.62,0,0,1,5.54,25.82,63.73,63.73,0,0,1-9.87,36.26A56.71,56.71,0,0,1,469.65,702a60.34,60.34,0,0,1-26.28-4.19,66.64,66.64,0,0,1-17.51-10.26,75.82,75.82,0,0,1-10.13-10.06,64,64,0,0,1-8.07-12.06,7.84,7.84,0,0,0-1.38-1.95c-3-3.16-6-6.41-9.15-9.52-9.06-9.05-17.71-18.55-26.73-27.66-5.46-5.52-10.77-11.2-16.2-16.75l-.7-.68a2.08,2.08,0,0,1,.57-.71c2-2.07,4-4.16,6-6.2a2.08,2.08,0,0,0,.65-1.81c-.1-1-.14-1.95-.25-2.92A3.25,3.25,0,0,1,361,595a11.57,11.57,0,0,1,1.75-2.29,51.4,51.4,0,0,1,5.74-4.7c4.08-2.78,8.41-5.11,12.71-7.51,14.44-8,29.34-15,45.28-19.73,4.53-1.33,9-2.77,13.65-3.8s9.41-2.07,14.2-2.79A3.41,3.41,0,0,0,457,552c.18-.41.31-.84.5-1.24C458.15,549.33,458.51,547.76,459.46,546.53Zm-28.65,46.35a1,1,0,0,0-.86.61l-.4.35a2.45,2.45,0,0,0-1.41,1.14l-.59.55a1.11,1.11,0,0,0-.67.36c-1.46,1.42-2.86,2.91-4.21,4.45a1.19,1.19,0,0,0-.34.7l-.52.62a1.94,1.94,0,0,0-.92,1.28,54.19,54.19,0,0,0-3.66,5.75,60.3,60.3,0,0,0-3.07,7.18,53,53,0,0,0-.9,31.23c4.05,14.75,12.28,26.28,24.93,34.29,21.91,13.87,50.43,9.67,65.24-13,6.91-10.58,9.32-22.66,7.5-35.91a56.75,56.75,0,0,0-12.09-28,54.5,54.5,0,0,0-13.25-12,52.25,52.25,0,0,0-13.26-6.18,48.8,48.8,0,0,0-15.93-2.16A47.27,47.27,0,0,0,446,585.6,46.16,46.16,0,0,0,430.81,592.88Z" transform="translate(-64.43 -46.82)"/><path class="a1b6a34e-8070-4e2d-a2dd-2f4bdce5d66a" d="M759,333.61c-1-2.51-2.2-4.89-3.33-7.32q-6.32-13.57-12.67-27.14c-.08-.17-.16-.35-.25-.51a.68.68,0,0,1,.3-1.1,9.79,9.79,0,0,1,4.87-1.2c.27,0,.53,0,.8,0,1.56.07,1.7-.11.9-1.53-1-1.8-2.15-3.53-3.2-5.32a.92.92,0,0,0-1.34-.44,33.11,33.11,0,0,1-11,2.1c0-.48.38-.54.7-.66,5.34-2,10.55-4.36,15.77-6.65a5.29,5.29,0,0,0,2.35-1.73,9.34,9.34,0,0,1,5.13-3.59,3.82,3.82,0,0,1,4.05,1.14,47.51,47.51,0,0,1,3.86,4.27c1,1.27,2.07,2.43,3.08,3.66q3.4,4.14,6.53,8.48c1.46,2,1.47,3.06.12,5.13a.84.84,0,0,0,0,1c1.14,2.05,2.26,4.13,3.39,6.2.5.93.7,1,1.26.14a18,18,0,0,1,3.88-4,3.23,3.23,0,0,1,2.44-.7,1.81,1.81,0,0,1,1.2.57,46,46,0,0,1,6.1,7.16,8.5,8.5,0,0,1,.79,1.49,3.61,3.61,0,0,1-.76,4.28,19.09,19.09,0,0,1-4.84,3.22,13.36,13.36,0,0,1-1.86.58c-1.07.23-1.08.25-.67,1.33a19.62,19.62,0,0,1,1.39,6.15,6.23,6.23,0,0,1-1.63,4.69c-2.25,2.53-5.08,4.17-7.89,5.88a75.45,75.45,0,0,1-13.73,6.07c-3.46,1.26-7,2.37-10.49,3.48-.36.12-.77.13-1.08.57.53.73,1.06,1.48,1.62,2.21a59.22,59.22,0,0,1,11.42,26.73c2.13,13.29,0,25.51-6.28,36.62a47.84,47.84,0,0,1-6.12,8.39,46.88,46.88,0,0,1-17,12.16,48.16,48.16,0,0,1-24.11,3.41,56.3,56.3,0,0,1-37.38-21.13c-.32-.41-.67-.79-1-1.18-.81-.9-.85-.92-1.66-.06q-5.17,5.46-10.34,10.95c-4.79,5.08-9.63,10.11-14.36,15.26-12.34,13.45-25,26.6-37.45,39.91-.38.4-.67,1-1.3,1,4.24-11.59,8.52-23.17,13.12-34.59,2.75-6.85,5.56-13.68,8.84-20.25a95.66,95.66,0,0,1,7.21-11.56c3.14-4.53,6.47-8.9,9.89-13.17,2.91-3.63,5.9-7.17,8.89-10.72q2.24-2.67,4.59-5.22a2.08,2.08,0,0,0,.53-1.83,56.18,56.18,0,0,1,1.82-21.85,50.51,50.51,0,0,1,13-22.07c16-16,41.13-18.22,61.35-5.78,1.68,1,3.29,2.21,4.92,3.34,1.09.92,2.22,1.82,3.27,2.79a1.25,1.25,0,0,0,1.52.31c2.47-1,5-1.81,7.58-2.61,1.64-.53,3.29-1,5-1.5.57-.16.68-.39.38-1C760.34,336.48,759.81,335,759,333.61ZM745.4,416.34c15.87-16.74,14.91-44.92-2.14-62.83s-43.81-18.94-59.69-2.25S668.71,396,685.42,413.9C701.83,431.44,728.89,433.67,745.4,416.34ZM770,325.81a2.57,2.57,0,0,0,0-1.57,57.59,57.59,0,0,0-3.48-11.58,23.79,23.79,0,0,0-1.88-4c-.28-.46-.54-.57-1-.32-1,.58-1.94,1.13-2.91,1.69a.64.64,0,0,0-.21,1c.15.24.28.49.43.73q3.39,5.37,6.79,10.73A32.28,32.28,0,0,0,770,325.81Z" transform="translate(-64.43 -46.82)"/><path class="f635c599-3b4b-46a1-a258-27ba6f8ac13f" d="M436.44,481.26l-5.81,5.42q-4.53,4.23-9,8.47c-3.07,2.89-6.12,5.8-9.19,8.69-2.79,2.62-5.59,5.21-8.38,7.83-3,2.79-5.94,5.6-8.92,8.4l-8.66,8.1q-1.8,1.7-3.63,3.37c-1.05,1-1.05,1-.86,2.39-.9-.22-1.38-1-1.95-1.68a2,2,0,0,0-2.59-.64,64.61,64.61,0,0,0-6.43,3.26,12.22,12.22,0,0,1-2.77,1.34c2.54-3,5.56-5.39,8.2-8.24a33.85,33.85,0,0,1,4.05-4.07c.36-.27.34-.59,0-.93s-.71-.74-1.06-1.13c-.81-.89-.8-1-.18-1.85a41,41,0,0,0,2.89-4.42,19.48,19.48,0,0,0,2-9c.4-3.31-.64-6.35-2.14-9.32a10.73,10.73,0,0,0-.88-2.07,2.32,2.32,0,0,1,.29-2.43c.95-1.33,2.09-2.47,3.14-3.69q3.53-4,7-8.17a10.39,10.39,0,0,0,1-1.85,50.25,50.25,0,0,1,4.88-7.69,55.94,55.94,0,0,1,4.77-5.73,71.9,71.9,0,0,1,8.15-7.26c.77-.57.77-.63,0-1.47-.89-1.05-.89-1.05-.06-2,1.28-1.47,1.23-2.88-.2-4.35a33.41,33.41,0,0,0-3.36-3.37,86.68,86.68,0,0,1,6.45-5.84c1.89-1.72,3.85-3.35,5.77-5s3.6-3.24,5.44-4.82c2.1-1.8,4.23-3.57,6.26-5.46a2.49,2.49,0,0,1,1.07-.71c1.06,1.38,1.8,1.49,3.09.46.85-.68.85-.68,1.69.15.17.16.33.33.49.5.36.37.7.39,1,0a12.35,12.35,0,0,0,1.44-1.69c1.24-1.91,2.53-2.28,4.73-1.46a16.6,16.6,0,0,1,4.3,2.67c.76.59,1.5,1.22,2.25,1.83a5,5,0,0,1,.52,1.89c1.62,9.54,2.94,19.12,4.29,28.69.38,2.7.64,2-1.18,4-5.12,5.43-10.23,10.86-15.51,16.12-.37.36-.82.66-.93,1.25l-.78.73A1.11,1.11,0,0,0,436.44,481.26Z" transform="translate(-64.43 -46.82)"/><path class="a1b6a34e-8070-4e2d-a2dd-2f4bdce5d66a" d="M368.22,536.21a12.22,12.22,0,0,0,2.77-1.34,64.61,64.61,0,0,1,6.43-3.26,2,2,0,0,1,2.59.64c.57.63,1.05,1.46,1.95,1.68a2.94,2.94,0,0,1-.71,3.71c-1.65,1.55-3.32,3.07-5,4.58-3,2.7-6,5.39-9,8.08-.16.15-.32.3-.47.46-.6.67-.65,1-.06,1.8a44.42,44.42,0,0,0,6.27,6.79,4.17,4.17,0,0,1-1.09.92l-9.95,7a90,90,0,0,0-8.49-8.2c-1.16-1-2.28-2.06-3.83-2.2a1.84,1.84,0,0,0-1.1-.49c-5-1-10.06-2-15.09-3-3.38-.69-6.78-.88-10.16-1.35a94.43,94.43,0,0,1-13-2.74,16.13,16.13,0,0,1-5-2.48c-.95-.7-1-.73-1.77.07a63.85,63.85,0,0,0-4.44,5l-4.28,5.5c-1.34,1.72-2.66,3.48-4,5.24a14.7,14.7,0,0,1-1.73,2,2.43,2.43,0,0,1-1.63.72,4.29,4.29,0,0,1-2.36-.23c-1.61-.91-2.48-.23-3.24,1.1-.46.8-1.06,1.51-1.59,2.26a6.4,6.4,0,0,1-7.15,2.42c-9.26-3-18.57-5.8-27.86-8.67a3.38,3.38,0,0,1-2-1.37,1.54,1.54,0,0,1,.11-2.22,18.52,18.52,0,0,1,3.06-2.62c5.11-3.79,10.42-7.29,15.78-10.7,9-5.7,17.9-11.48,27-17A263.91,263.91,0,0,1,324,510.53a3,3,0,0,1,1.87-.41c.36.08.67-.16,1-.3l5.14-2.16c.56-.23,1.14-.43,1.72-.61a.92.92,0,0,1,1.24.73,3.82,3.82,0,0,1,.25,1.37c-.13,2.81-.35,5.6-.71,8.38a8,8,0,0,1-3.33,5.36,29.14,29.14,0,0,0-3.1,2.57c-.67-1.25-.8-2.72-1.65-4.1a15,15,0,0,1-4.85,6.06,1.07,1.07,0,0,0-1,.83l.68,2.16-3.41,3c-.47.42-.4.83.08,1.26a5.65,5.65,0,0,0,2.41,1.23c1.08.31,2.16.57,3.24.85a7.79,7.79,0,0,1,.48,1.17,1.91,1.91,0,0,0,1.66,1.57c1.75.36,3.48.83,5.24,1.11a11.67,11.67,0,0,0,1.45.14c.41,0,.5-.21.39-.62a12,12,0,0,1-.59-2,6.36,6.36,0,0,0,2.73.53,133.87,133.87,0,0,0,17.52,1.07,41.64,41.64,0,0,0,8.75-1.36c1.53-.33,3-.72,4.55-1.09A7.57,7.57,0,0,0,368.22,536.21Z" transform="translate(-64.43 -46.82)"/><path class="ae0f86c2-421f-4b37-9ce6-645566461479" d="M361.94,567.27l9.95-7a4.17,4.17,0,0,0,1.09-.92c1.59-.87,3-2,4.52-3,4.09-2.67,8.15-5.36,12.28-8a181.09,181.09,0,0,1,19.05-10.76c6.24-3,12.45-6,18.89-8.55,3.3-1.29,6.64-2.48,10-3.74.52-.2,1.13-.13,1.6-.49,2.41-.53,4.7-1.42,7.06-2.13a17.67,17.67,0,0,0,3.53-1.26.53.53,0,0,0,.56-.3l.05-.07.08,0a4.38,4.38,0,0,0,2.53-.38c5.43-1.45,10.92-2.72,16.48-3.69a8.08,8.08,0,0,1,2.68-.42l-.36.36c-.68.11-1,.72-1.42,1.14s-.86.88-1.32,1.27a38,38,0,0,0-4.47,4.59,108,108,0,0,0-10,14.37,57.11,57.11,0,0,1-3.71,5.8,2.83,2.83,0,0,1-2.38,1.34,7.31,7.31,0,0,0-1.78.36c-3.46.88-6.83,2-10.2,3.13-13.19,4.4-26.21,9.23-39.2,14.16a143.16,143.16,0,0,0-15.05,6.37,172.9,172.9,0,0,0-20.5,12.68c-4.34,3.09-8.61,6.27-12.73,9.67q-3.1,2.57-6.23,5.11a7.46,7.46,0,0,1-2.44-1.75c-1.72-1.75-3.43-3.52-5.14-5.29a2.42,2.42,0,0,1,.34-2,15.72,15.72,0,0,1,2.82-3.41c2-1.74,4.05-3.5,6.21-5.07a7.28,7.28,0,0,0,.91-.93,2.07,2.07,0,0,0,1.3-.51q5.46-3.59,10.79-7.38A29.87,29.87,0,0,0,361.94,567.27Z" transform="translate(-64.43 -46.82)"/><path class="ae0f86c2-421f-4b37-9ce6-645566461479" d="M613.49,407.61a2.39,2.39,0,0,1,.07-1.75c.92-3.93,1.89-7.84,2.82-11.77q1.77-7.43,4-14.68c1.61-5.31,3.28-10.59,5.19-15.78,1.52-4.13,3.12-8.22,4.93-12.2,1.4-3.08,2.95-6.08,4.61-9a7.42,7.42,0,0,1,.61-.86c.69-1,1.44-1.95,2.06-3,.52-.89,1.35-1.57,1.55-2.68,3.19-3.39,6.29-6.88,9.61-10.12,1.52-1.48,3-3,4.53-4.47a4.32,4.32,0,0,1,1-.83,1.18,1.18,0,0,0,.78-1,15.44,15.44,0,0,0,2.9-2.39,96.68,96.68,0,0,1,20.42-14.77,102.68,102.68,0,0,1,13.88-6.63,25.84,25.84,0,0,1,6.55-1.61,16.2,16.2,0,0,1,5.12.55c.12,0,.22.16.32.24a1.14,1.14,0,0,1-.31.23c-2.81,1-4.39,3.26-5.25,6.16-.44,1.47-.85,2.95-1.27,4.43a4.31,4.31,0,0,1-3.07,3.13,79,79,0,0,0-28,14.87,89,89,0,0,0-10.94,11,128.8,128.8,0,0,0-9.52,13.1,69.36,69.36,0,0,0-10.45,24.68A41,41,0,0,1,632,383.35a7,7,0,0,1-3.78,3.62c-3,1.14-5.08,3.39-6.88,6a76.29,76.29,0,0,0-6.2,11.3A17.27,17.27,0,0,1,613.49,407.61Z" transform="translate(-64.43 -46.82)"/><path class="b441ed5f-a848-4949-907c-cf56a404bde8" d="M471.89,516.91l.36-.36a9.39,9.39,0,0,1,4.69-.91,9.21,9.21,0,0,1,6.19,3.7,2.59,2.59,0,0,1,.34.61c.48,1,.29,1.58-.74,1.84a33.37,33.37,0,0,0-5.42,1.78,20.4,20.4,0,0,0-8.19,5.79,51.52,51.52,0,0,0-6,9.29c-1.16,2.31-2.32,4.61-3.35,7a9.43,9.43,0,0,0-.29.9c-.95,1.23-1.31,2.8-2,4.2-.19.4-.32.83-.5,1.24a3.41,3.41,0,0,1-2.69,2.21c-4.79.72-9.5,1.75-14.2,2.79s-9.12,2.47-13.65,3.8c-15.94,4.68-30.84,11.68-45.28,19.73-4.3,2.4-8.63,4.73-12.71,7.51a51.4,51.4,0,0,0-5.74,4.7A11.57,11.57,0,0,0,361,595a3.25,3.25,0,0,0-.48,2.22c.11,1,.15,1.95.25,2.92a2.08,2.08,0,0,1-.65,1.81c-2,2-4,4.13-6,6.2a2.08,2.08,0,0,0-.57.71c-.42.38-.84.75-1.25,1.14-.79.76-1.11.76-2,.06a9.25,9.25,0,0,1-.82-1,5.83,5.83,0,0,0-.71-2c-1.06-2.15-2.16-4.27-3.22-6.43a14,14,0,0,0-2.61-3.8q3.12-2.55,6.23-5.11c4.12-3.4,8.39-6.58,12.73-9.67a172.9,172.9,0,0,1,20.5-12.68,143.16,143.16,0,0,1,15.05-6.37c13-4.93,26-9.76,39.2-14.16,3.37-1.12,6.74-2.25,10.2-3.13a7.31,7.31,0,0,1,1.78-.36,2.83,2.83,0,0,0,2.38-1.34,57.11,57.11,0,0,0,3.71-5.8,108,108,0,0,1,10-14.37,38,38,0,0,1,4.47-4.59c.46-.39.88-.84,1.32-1.27A3.35,3.35,0,0,0,471.89,516.91Z" transform="translate(-64.43 -46.82)"/><path class="ae0f86c2-421f-4b37-9ce6-645566461479" d="M431.79,425.36a2.49,2.49,0,0,0-1.07.71c-2,1.89-4.16,3.66-6.26,5.46-1.84,1.58-3.62,3.22-5.44,4.82s-3.88,3.32-5.77,5a86.68,86.68,0,0,0-6.45,5.84c-1.35,1.29-2.68,2.6-4.06,3.87a8.22,8.22,0,0,1-3.23,1.59c-.52.17-.83-.18-1.15-.52l-4.75-5c-.9-.95-1.8-1.91-2.72-2.84a1.73,1.73,0,0,1-.51-1.5,8,8,0,0,1,2-4.74c2.15-2.58,4.19-5.27,6.37-7.83,1-1.24,2-2.52,3.06-3.77,2-2.45,4-5,6-7.45.9-1.12,1.85-2.21,2.77-3.32,1.14-1.37,2.24-2.8,3.4-4.16,1.95-2.29,3.77-4.71,5.67-7,1.11-1.36,2.3-2.63,3.37-4,.72-.94.9-.89,1.45.24.95,1.95,1.93,3.89,2.75,5.89,1.65,4.05,4.13,7.6,6.41,11.28.59.95,1.26,1.87,1.89,2.8s.52,1.07-.25,1.69A30.34,30.34,0,0,0,431.79,425.36Z" transform="translate(-64.43 -46.82)"/><path class="b441ed5f-a848-4949-907c-cf56a404bde8" d="M539.9,556.68c-4.45-.21-8.89-.44-13.34-1a173.74,173.74,0,0,1-18-3.08A256.51,256.51,0,0,0,475,547.45c-1-.1-2-.25-3-.38a1.26,1.26,0,0,1-.05-1c.79-2.12,1.84-4,4.19-4.48a21,21,0,0,1,5.08-.46A106.68,106.68,0,0,1,496.24,543c9.7,1.62,19.37,3.58,29.09,5a185,185,0,0,0,19,2,59.68,59.68,0,0,0,15.18-.84,22.11,22.11,0,0,0,12-6.59c2.49-2.7,4.79-5.57,7.18-8.36a32.37,32.37,0,0,1,8.12-7.06,8,8,0,0,1,2.41-1,3.41,3.41,0,0,1,3.62,1.26,6.6,6.6,0,0,0,.6.58,3,3,0,0,1-.72,2.24c-2.19,3.15-4.62,6.08-7.09,9-3.11,3.66-6.28,7.28-9.68,10.66-1.42,1.41-2.88,2.77-4.42,4.05a11.16,11.16,0,0,1-4.38,2.15A46.28,46.28,0,0,1,557,557.39a122.36,122.36,0,0,1-16.1-.67C540.59,556.69,540.24,556.69,539.9,556.68Z" transform="translate(-64.43 -46.82)"/><path class="b441ed5f-a848-4949-907c-cf56a404bde8" d="M613.49,407.61a17.27,17.27,0,0,0,1.62-3.35,76.29,76.29,0,0,1,6.2-11.3c1.8-2.6,3.9-4.85,6.88-6a7,7,0,0,0,3.78-3.62,41,41,0,0,0,3.61-10.86A69.36,69.36,0,0,1,646,347.81a128.8,128.8,0,0,1,9.52-13.1,89,89,0,0,1,10.94-11,79,79,0,0,1,28-14.87,4.31,4.31,0,0,0,3.07-3.13c.42-1.48.83-3,1.27-4.43.86-2.9,2.44-5.13,5.25-6.16a1.14,1.14,0,0,0,.31-.23h0a.29.29,0,0,0,.41,0A32.82,32.82,0,0,1,713,297.2c.13.09.26.13.39,0v0a6.1,6.1,0,0,0,1.78,1,18.88,18.88,0,0,1,5.95,4.39,7.71,7.71,0,0,1,1.07,1.64c.27.53.18.87-.36,1.05a4.8,4.8,0,0,1-1.35.41c-1.49-.82-2.76-2-4.2-2.92a22.75,22.75,0,0,0-7.53-3.42c-4.79-.93-8.23,2.27-7.88,7.31l0,.41c.18,2.36-.41,3.37-2.46,4.15a127.5,127.5,0,0,0-22.43,11.25,29.89,29.89,0,0,0-4.89,3.4,38.66,38.66,0,0,0-4.31,3.33,98.26,98.26,0,0,0-10.22,9.88,58.61,58.61,0,0,0-5.69,8.07,101.5,101.5,0,0,0-7.88,14.47A87,87,0,0,0,638.45,375c-.39,1.58-.61,3.22-.85,4.85a8.34,8.34,0,0,1-1.15,3.28,27.47,27.47,0,0,1-7.34,8.09,18.51,18.51,0,0,0-5.22,6.16A101.13,101.13,0,0,0,614.62,419c-.48,1.6-.74,3.28-1.09,4.93,0,.22-.06.45-.11.67-.15.6-.11,1.39-.85,1.54s-1.2-.55-1.61-1.1a3.92,3.92,0,0,1-.54-3.33c.59-3,1.2-6,1.78-9,.3-1.51.6-3,1-4.49a.61.61,0,0,0,.2-.69Z" transform="translate(-64.43 -46.82)"/><path class="ae0f86c2-421f-4b37-9ce6-645566461479" d="M438,479.76c.11-.59.56-.89.93-1.25,5.28-5.26,10.39-10.69,15.51-16.12,1.82-1.93,1.56-1.26,1.18-4-1.35-9.57-2.67-19.15-4.29-28.69a5,5,0,0,0-.52-1.89c-.36-2.73-.73-5.46-1.08-8.18-.14-1.07-.25-2.13-.38-3.2a1.59,1.59,0,0,1,.49-1.47q2.76-2.58,5.5-5.18c.26-.23.53-.45.78-.69,3.26-3.12,6.61-6.15,10-9.15a7.07,7.07,0,0,1,.37,2.88c-.12,1.55,0,3.14-.06,4.71-.18,4.09-.46,8.17-.79,12.24-.51,6.09-1.13,12.16-2,18.18-.74,5.31-1.61,10.58-2.78,15.76-.32,1.42-.68,2.83-.92,4.27a5.82,5.82,0,0,1-2.36,3.71,9.91,9.91,0,0,0-1.45,1.3c-1.8,2.09-3.95,3.79-5.9,5.71s-3.95,3.65-5.93,5.47-3.9,3.44-5.75,5.28A.88.88,0,0,1,438,479.76Z" transform="translate(-64.43 -46.82)"/><path class="b2bd0044-e87b-4abe-8130-caabe4fff4c0" d="M361.94,567.27a29.87,29.87,0,0,1-4.29,3.33q-5.32,3.79-10.79,7.38a2.07,2.07,0,0,1-1.3.51,16.17,16.17,0,0,1-3.64-4.21,7.07,7.07,0,0,1-1.17-3.84,16.06,16.06,0,0,1,1.6-7.64,11.46,11.46,0,0,1,6.07-5.45c.4-.17.8-.32,1.2-.48,1.55.14,2.67,1.25,3.83,2.2A90,90,0,0,1,361.94,567.27Z" transform="translate(-64.43 -46.82)"/><path class="a1b6a34e-8070-4e2d-a2dd-2f4bdce5d66a" d="M342.86,596.9a14,14,0,0,1,2.61,3.8c1.06,2.16,2.16,4.28,3.22,6.43a5.83,5.83,0,0,1,.71,2,13.05,13.05,0,0,1-3.86,3.62c-.8.54-1,.52-1.74-.15A135.55,135.55,0,0,1,332,600.91a27.67,27.67,0,0,1-2.54-3.36c-.57-.88-.59-.92.09-1.64,1.91-2,3.84-4,5.76-6,1.71,1.77,3.42,3.54,5.14,5.29A7.46,7.46,0,0,0,342.86,596.9Z" transform="translate(-64.43 -46.82)"/><path class="b2bd0044-e87b-4abe-8130-caabe4fff4c0" d="M321.52,527.42a15,15,0,0,0,4.85-6.06c.85,1.38,1,2.85,1.65,4.1a9.55,9.55,0,0,0,.67,2.27q1.47,4.54,3,9.07a4.15,4.15,0,0,0,.51,1.3,12,12,0,0,0,.59,2c.11.41,0,.64-.39.62a11.67,11.67,0,0,1-1.45-.14c-1.76-.28-3.49-.75-5.24-1.11a1.91,1.91,0,0,1-1.66-1.57,7.79,7.79,0,0,0-.48-1.17,55.28,55.28,0,0,0-2.32-6.34c-.23-.72-.45-1.44-.68-2.16C320.88,528,321.3,527.83,321.52,527.42Z" transform="translate(-64.43 -46.82)"/><path class="ae0f86c2-421f-4b37-9ce6-645566461479" d="M478.58,386.62c-.06.5-.43.76-.73,1.07l-9.44,10a2,2,0,0,1-1,.78l-2.68-2.85a8.72,8.72,0,0,1-1.28-1.85c-.62-1.16-.54-1.7.38-2.5a14.3,14.3,0,0,1,3-2A21.12,21.12,0,0,1,478.58,386.62Z" transform="translate(-64.43 -46.82)"/><path class="b2bd0044-e87b-4abe-8130-caabe4fff4c0" d="M382,497.3c1.5,3,2.54,6,2.14,9.32a13,13,0,0,1-2.56-4.81A5.52,5.52,0,0,1,382,497.3Z" transform="translate(-64.43 -46.82)"/><path class="e9722cb9-b213-441c-b0df-0bc7783b1be5" d="M704.79,294.86a.29.29,0,0,1-.41,0A.31.31,0,0,1,704.79,294.86Z" transform="translate(-64.43 -46.82)"/><path class="bdac3781-1419-4edf-ba2f-bb4f86b6f870" d="M713.43,297.21c-.13.12-.26.08-.39,0A.3.3,0,0,1,713.43,297.21Z" transform="translate(-64.43 -46.82)"/><path class="e666aa2b-4052-42ff-9448-7c12644a6cd2" d="M479.9,435.39c-.53-.44-.22-.95-.17-1.41q.94-9.39,1.92-18.77c.23-2.15.44-4.3.67-6.44a19.17,19.17,0,0,0,.08-4,6.31,6.31,0,0,1,1.57-4.61,12.59,12.59,0,0,1,3-2.69c7.69-5.07,15.17-10.45,22.81-15.59,10.29-6.94,20.57-13.88,31.35-20,1.57-.9,3.18-1.74,4.78-2.59a35,35,0,0,1,9.26-3.31c9.75-2.05,19.65-3.36,29.58-4.5,5.69-.66,11.38-1.23,17.13-1.47a22.78,22.78,0,0,1,5,.2,7.72,7.72,0,0,1,2.31.75,2,2,0,0,1,1.08,2.66,73.88,73.88,0,0,1-8.59,18.95,28.64,28.64,0,0,1-8.46,8C582,388,570.4,394.91,558.82,401.79c-9.1,5.4-18.26,10.69-27.39,16-1.12.66-2.39,1-3.49,1.68l-2.65,1.18c-2.32,1-4.65,2.07-6.94,3.17a2.82,2.82,0,0,1-2.26.14c-2.6-.88-5.24-1.61-7.9-2.23a5.44,5.44,0,0,0-3.79.45c-3.76,1.85-7.45,3.81-11.13,5.8C488.8,430.46,484.35,432.94,479.9,435.39Z" transform="translate(-64.43 -46.82)"/><path class="b441ed5f-a848-4949-907c-cf56a404bde8" d="M639.29,335.88c-.2,1.11-1,1.79-1.55,2.68-.62,1.05-1.37,2-2.06,3a20.85,20.85,0,0,0-10.39,4.1c-3.31,2.42-5.16,6-6.7,9.8a59,59,0,0,0-3.2,10.91,21.18,21.18,0,0,1-4,8.67A53.06,53.06,0,0,1,595,389.31c-4.84,2.85-9.85,5.39-14.69,8.25-10.18,6.05-20.19,12.38-30.12,18.84-6.78,4.41-13.54,8.84-20.21,13.43-4.92,3.38-9.76,6.87-14.63,10.33-6.25,4.44-12.5,8.86-18.72,13.33-5.94,4.28-11.9,8.51-17.71,13-3.4,2.62-6.69,5.38-10.05,8s-6.56,5.12-9.83,7.7c-3.85,3-7.67,6.1-11.54,9.09-4.87,3.77-9.32,8.08-14.08,12S424,511,419.38,515c-4.41,3.72-8.77,7.51-13.15,11.27q-5,4.28-9.83,8.76c-.71.66-.77.67-1.52-.11-1.63-1.72-1.72-1.45,0-2.92,2.67-2.28,5.28-4.65,7.92-7s5.5-4.8,8.24-7.21c2.52-2.2,5-4.41,7.56-6.6q4.92-4.28,9.85-8.52,3.51-3,7-6c3.05-2.59,6.09-5.17,9.15-7.74,2.5-2.09,5-4.14,7.52-6.22C455,480.27,458,478,461,475.89c3.59-2.5,7-5.25,10.47-7.92,4.16-3.19,8.28-6.42,12.45-9.61s8.49-6.44,12.73-9.65q8.35-6.31,16.88-12.35c7.69-5.46,15.47-10.79,23.39-15.9,9.71-6.26,19.6-12.2,29.82-17.55a216.29,216.29,0,0,0,22.82-13.61,96.26,96.26,0,0,0,14.7-12.21,34.67,34.67,0,0,0,6.4-8.67,16.91,16.91,0,0,0,1.26-3.69,60.37,60.37,0,0,1,5.25-14.54,13.93,13.93,0,0,1,5.09-5.51,127.07,127.07,0,0,1,15-8C637.9,336.36,638.6,336.13,639.29,335.88Z" transform="translate(-64.43 -46.82)"/><path class="b441ed5f-a848-4949-907c-cf56a404bde8" d="M450.56,521l-.08,0-.05.07a.69.69,0,0,0-.56.3,17.67,17.67,0,0,1-3.53,1.26c-2.36.71-4.65,1.6-7.06,2.13a50.22,50.22,0,0,1,4.86-3.45c6.83-4.66,13.63-9.35,20.52-13.91,13.43-8.88,27.31-17,41.39-24.78q14.52-8,29.32-15.56c8.47-4.34,17-8.52,25.58-12.65a2.05,2.05,0,0,1,1.23-.37,2.71,2.71,0,0,0,.73,1.64,39.81,39.81,0,0,1-4.93,2.87q-14.12,7.81-28.26,15.59-12.09,6.66-24.18,13.33c-9.27,5.12-18.56,10.2-27.76,15.43-3.45,2-6.69,4.3-10,6.49L451.45,520.3A9,9,0,0,0,450.56,521Z" transform="translate(-64.43 -46.82)"/><path class="a1b6a34e-8070-4e2d-a2dd-2f4bdce5d66a" d="M562.91,455.76a2.71,2.71,0,0,1-.73-1.64,2,2,0,0,1,1-.74c2.11-1,4.23-2,6.33-3a4.32,4.32,0,0,1,1.89-.38c10,0,20,.16,29.93.06a4.59,4.59,0,0,1,3.18.77,7,7,0,0,1,1.36,6.4c-.53,1.91-1.18,3.76-1.82,5.62-.31.9-.8,1.31-1.72,1.2a12.43,12.43,0,0,0-2.86-.69c-8-1.4-16-2.77-23.92-4.18a91.58,91.58,0,0,1-9-2.06A21.3,21.3,0,0,1,562.91,455.76Z" transform="translate(-64.43 -46.82)"/><path d="M479.9,435.39c4.45-2.45,8.9-4.93,13.37-7.36,3.68-2,7.37-3.95,11.13-5.8a5.44,5.44,0,0,1,3.79-.45c2.66.62,5.3,1.35,7.9,2.23a2.82,2.82,0,0,0,2.26-.14c2.29-1.1,4.62-2.13,6.94-3.17l2.65-1.18c-.11.78-.83.85-1.31,1.13-4.56,2.65-9.15,5.25-13.72,7.88q-12.54,7.2-25.06,14.42a32.61,32.61,0,0,1-4.93,2.59,7.11,7.11,0,0,1-3.45.56c-.8-.11-.9-.23-.82-1.09.28-2.93.59-5.85.88-8.77A1.72,1.72,0,0,1,479.9,435.39Z" transform="translate(-64.43 -46.82)"/><path class="f635c599-3b4b-46a1-a258-27ba6f8ac13f" d="M671.16,325.88a29.89,29.89,0,0,1,4.89-3.4,127.5,127.5,0,0,1,22.43-11.25c2-.78,2.64-1.79,2.46-4.15l0-.41c-.35-5,3.09-8.24,7.88-7.31a22.75,22.75,0,0,1,7.53,3.42c1.44.91,2.71,2.1,4.2,2.92-2.57,1.23-5.24,2.21-7.88,3.29l-41,16.75C671.49,325.8,671.32,325.83,671.16,325.88Z" transform="translate(-64.43 -46.82)"/><path class="b441ed5f-a848-4949-907c-cf56a404bde8" d="M602.36,464.07c.92.11,1.41-.3,1.72-1.2.64-1.86,1.29-3.71,1.82-5.62a7,7,0,0,0-1.36-6.4A6.38,6.38,0,0,1,608,457a56.63,56.63,0,0,1-2.61,10.27c-3.72,11.4-8.15,22.47-12.67,33.49-.81,2-1.64,3.95-2.63,5.83l2-6.58c1.48-5,3-10.05,4.45-15.08q2.28-7.82,4.51-15.64C601.47,467.59,601.9,465.83,602.36,464.07Z" transform="translate(-64.43 -46.82)"/><path class="b441ed5f-a848-4949-907c-cf56a404bde8" d="M759,333.61c.84,1.36,1.37,2.87,2.1,4.28.3.58.19.81-.38,1-1.66.46-3.31,1-5,1.5-2.55.8-5.11,1.6-7.58,2.61a1.25,1.25,0,0,1-1.52-.31c-1-1-2.18-1.87-3.27-2.79a93.62,93.62,0,0,1,13.84-4.31C758.26,335.31,759,334.83,759,333.61Z" transform="translate(-64.43 -46.82)"/><path class="e9722cb9-b213-441c-b0df-0bc7783b1be5" d="M436.44,481.26a1.11,1.11,0,0,1,.77-.77Z" transform="translate(-64.43 -46.82)"/><path class="e9722cb9-b213-441c-b0df-0bc7783b1be5" d="M613.44,407.58a.61.61,0,0,1-.2.69A.84.84,0,0,1,613.44,407.58Z" transform="translate(-64.43 -46.82)"/><path class="b2bd0044-e87b-4abe-8130-caabe4fff4c0" d="M421.81,601.66l.52-.62q2.52-2.85,5.22-5.51l.59-.55a4.33,4.33,0,0,0,1.41-1.14l.4-.35a1.6,1.6,0,0,0,.86-.61A46.16,46.16,0,0,1,446,585.6a47.27,47.27,0,0,1,10.36-1.5,48.8,48.8,0,0,1,15.93,2.16,52.25,52.25,0,0,1,13.26,6.18,54.5,54.5,0,0,1,13.25,12,56.75,56.75,0,0,1,12.09,28c1.82,13.25-.59,25.33-7.5,35.91-14.81,22.65-43.33,26.85-65.24,13-12.65-8-20.88-19.54-24.93-34.29a53,53,0,0,1,.9-31.23,60.3,60.3,0,0,1,3.07-7.18,54.19,54.19,0,0,1,3.66-5.75A3.59,3.59,0,0,0,421.81,601.66Zm66.28,62.94c13.59-14.35,12.82-38.65-1.82-54-14.85-15.56-37.76-16.24-51.37-1.88s-13,38.31,1.83,54C451.76,678.54,474.73,678.71,488.09,664.6Z" transform="translate(-64.43 -46.82)"/><path class="f635c599-3b4b-46a1-a258-27ba6f8ac13f" d="M427.55,595.53q-2.7,2.65-5.22,5.51a1.19,1.19,0,0,1,.34-.7c1.35-1.54,2.75-3,4.21-4.45A1.11,1.11,0,0,1,427.55,595.53Z" transform="translate(-64.43 -46.82)"/><path class="f635c599-3b4b-46a1-a258-27ba6f8ac13f" d="M429.55,593.84a4.33,4.33,0,0,1-1.41,1.14A2.45,2.45,0,0,1,429.55,593.84Z" transform="translate(-64.43 -46.82)"/><path class="f635c599-3b4b-46a1-a258-27ba6f8ac13f" d="M421.81,601.66a3.59,3.59,0,0,1-.92,1.28A1.94,1.94,0,0,1,421.81,601.66Z" transform="translate(-64.43 -46.82)"/><path class="f635c599-3b4b-46a1-a258-27ba6f8ac13f" d="M430.81,592.88a1.6,1.6,0,0,1-.86.61A1,1,0,0,1,430.81,592.88Z" transform="translate(-64.43 -46.82)"/><path class="b2bd0044-e87b-4abe-8130-caabe4fff4c0" d="M745.4,416.34c-16.51,17.33-43.57,15.1-60-2.44-16.71-17.87-17.67-46-1.85-62.64s42.63-15.69,59.69,2.25S761.27,399.6,745.4,416.34Zm-51.9-10.6c12.3,13,31.76,13.87,43.22,1.9,11.68-12.22,11.09-32.61-1.33-45.77s-31.77-13.86-43.31-1.7C680.14,372.74,681.56,393.17,693.5,405.74Z" transform="translate(-64.43 -46.82)"/><path class="b441ed5f-a848-4949-907c-cf56a404bde8" d="M770,325.81a32.28,32.28,0,0,1-2.18-3.24q-3.4-5.35-6.79-10.73c-.15-.24-.28-.49-.43-.73a.64.64,0,0,1,.21-1c1-.56,2-1.11,2.91-1.69.42-.25.68-.14,1,.32a23.79,23.79,0,0,1,1.88,4A57.59,57.59,0,0,1,770,324.24,2.57,2.57,0,0,1,770,325.81Z" transform="translate(-64.43 -46.82)"/><path class="beacb05c-c049-437e-961b-338d9d178014" d="M334.29,516.62a57.45,57.45,0,0,1,2.33,6.35c-1.09-.29-2.17-.55-3.25-.85a5.77,5.77,0,0,1-2.41-1.23c-.47-.44-.55-.85-.08-1.27Z" transform="translate(-64.43 -46.82)"/><path class="f635c599-3b4b-46a1-a258-27ba6f8ac13f" d="M321.52,527.42c-.22.41-.64.56-1,.83A1.07,1.07,0,0,1,321.52,527.42Z" transform="translate(-64.43 -46.82)"/><path class="bdac3781-1419-4edf-ba2f-bb4f86b6f870" d="M471.89,516.91a3.35,3.35,0,0,1-1.42,1.14C470.91,517.63,471.21,517,471.89,516.91Z" transform="translate(-64.43 -46.82)"/><path class="bdac3781-1419-4edf-ba2f-bb4f86b6f870" d="M449.87,521.45a.69.69,0,0,1,.56-.3A.53.53,0,0,1,449.87,521.45Z" transform="translate(-64.43 -46.82)"/><path class="f1b97e76-609f-4bb2-9e1d-dcf2b9e03776" d="M488.09,664.6c-13.36,14.11-36.33,13.94-51.36-1.9-14.85-15.65-15.34-39.71-1.83-54s36.52-13.68,51.37,1.88C500.91,626,501.68,650.25,488.09,664.6Z" transform="translate(-64.43 -46.82)"/><path class="f1b97e76-609f-4bb2-9e1d-dcf2b9e03776" d="M693.5,405.74c-11.94-12.57-13.36-33-1.42-45.57,11.54-12.16,31-11.31,43.31,1.7s13,33.55,1.33,45.77C725.26,419.61,705.8,418.75,693.5,405.74Z" transform="translate(-64.43 -46.82)"/><text class="a7ac86bb-e779-4d46-8b9d-87d9200f19ec" transform="translate(155.97 164.85) scale(0.98 1)">UC Berkeley</text><text class="a7ac86bb-e779-4d46-8b9d-87d9200f19ec" transform="translate(101.4 774.92) scale(0.98 1)">Rocket LeaGue</text><text class="bc2f24b9-ab33-41cc-a103-cf587c9eb6d2" transform="translate(331.3 836.13)">Es<tspan class="b6ae3e16-830a-4efb-8298-49dee89acbc4" x="57.89" y="0">t</tspan><tspan x="80.73" y="0">. 2020</tspan></text></g></svg>